<svg width="127" height="34" viewBox="0 0 127 34" fill="none" xmlns="http://www.w3.org/2000/svg">
<path fill-rule="evenodd" clip-rule="evenodd" d="M15.9099 5.32551L14.9181 3.71495C14.6977 3.35811 14.8302 2.90002 15.2125 2.69428L18.6648 0.842611C19.0471 0.63687 19.5378 0.760636 19.7582 1.11908L20.75 2.72964C23.536 7.23343 24.9496 12.2805 24.9496 17.334C24.9496 22.3409 23.5635 27.3768 20.75 31.9256L19.7496 33.5442C19.5275 33.901 19.0368 34.0231 18.6545 33.8174L11.9444 30.2009L11.9427 30.2041L7.79471 27.9618C7.41246 27.7561 7.2816 27.2964 7.50372 26.9396L8.50412 25.3274C10.0641 22.8055 10.8062 20.0569 10.8062 17.3485C10.8062 15.5933 10.4963 13.8525 9.89883 12.2001C9.85234 12.0683 9.75247 11.9719 9.61472 11.9237C9.47525 11.8739 9.33234 11.8851 9.2032 11.9542L7.42795 12.9122C7.22994 13.0183 7.14212 13.2305 7.20756 13.433C7.62425 14.6932 7.83948 16.0112 7.83948 17.3389C7.83776 19.5859 7.2265 21.8603 5.93854 23.9434L4.94675 25.554C4.72635 25.9108 4.23562 26.0346 3.85337 25.8305L0.40103 23.9788C0.018776 23.7731 -0.113806 23.315 0.106592 22.9581L1.09839 21.346C1.88011 20.081 2.25376 18.7003 2.25376 17.3389C2.25376 15.926 1.85429 14.5308 1.09839 13.3076L0.106592 11.697C-0.112084 11.3402 0.0204995 10.8805 0.402753 10.6764L2.15906 9.73448L11.2557 4.83206C11.6379 4.62471 12.1304 4.74847 12.3508 5.1053L13.346 6.71908C15.3382 9.94825 16.392 13.6227 16.3903 17.3485C16.3903 20.0022 15.8582 22.6801 14.7545 25.2406C14.6649 25.4495 14.751 25.6842 14.9594 25.7967L16.7071 26.7386C16.8311 26.8061 16.9671 26.8174 17.1031 26.7756C17.2374 26.7322 17.3373 26.6454 17.3924 26.5216C18.6975 23.5786 19.3433 20.4555 19.3433 17.334C19.3433 13.1581 18.1862 9.00795 15.9099 5.32551Z" fill="#FAD810"/>
<path d="M56.5034 25.0199C54.3768 22.9605 53.3145 20.3381 53.3145 17.1561C53.3145 13.9724 54.3906 11.331 56.5447 9.23207C58.697 7.13139 61.3797 6.08105 64.5892 6.08105C67.7988 6.08105 70.4866 7.13829 72.6544 9.25102C74.8205 11.3637 75.9036 13.9999 75.9036 17.1561C75.9036 20.3381 74.8412 22.9605 72.7147 25.0199C70.5882 27.0792 67.8797 28.1089 64.5892 28.1089C61.3263 28.1089 58.6299 27.0792 56.5034 25.0199ZM58.852 17.1561C58.852 18.921 59.3926 20.3725 60.4757 21.509C61.5605 22.6454 62.9311 23.2153 64.5892 23.2153C66.2749 23.2153 67.6576 22.6454 68.7424 21.509C69.8254 20.3725 70.3661 18.921 70.3661 17.1561C70.3661 15.3636 69.8185 13.8863 68.7217 12.7223C67.6249 11.5583 66.2474 10.9763 64.5892 10.9763C62.9311 10.9763 61.5605 11.5583 60.4757 12.7223C59.3926 13.8863 58.852 15.3636 58.852 17.1561ZM78.4761 26.9948V7.19682C78.4761 6.86967 78.743 6.60278 79.0701 6.60278H83.4213C83.7467 6.60278 84.0136 6.86967 84.0136 7.19682V26.9948C84.0136 27.322 83.7467 27.5872 83.4213 27.5872H79.0701C78.743 27.5872 78.4761 27.322 78.4761 26.9948ZM98.1415 23.2153C99.5448 23.2153 100.909 22.7487 102.233 21.8206C102.391 21.7087 102.575 21.6812 102.76 21.7432C102.944 21.8051 103.076 21.9377 103.137 22.122L104.23 25.4641C104.311 25.712 104.228 25.9703 104.018 26.1253C102.224 27.4477 100.16 28.1089 97.8212 28.1089C94.5583 28.1089 91.8756 27.0792 89.7767 25.0199C87.676 22.9605 86.6274 20.3381 86.6274 17.1561C86.6274 13.9724 87.6898 11.331 89.8163 9.23207C91.9428 7.13139 94.5979 6.08105 97.7816 6.08105C100.092 6.08105 102.181 6.74225 104.044 8.06465C104.261 8.21962 104.349 8.4865 104.264 8.73789L103.113 12.1644C103.049 12.3504 102.913 12.483 102.725 12.5415C102.537 12.6 102.35 12.5673 102.193 12.4485C100.893 11.467 99.4759 10.9763 97.9417 10.9763C96.2027 10.9763 94.8045 11.5652 93.749 12.743C92.6918 13.919 92.1632 15.3774 92.1632 17.1148C92.1632 18.9072 92.7245 20.3725 93.8489 21.509C94.9715 22.6454 96.4041 23.2153 98.1415 23.2153ZM105.73 17.1561C105.73 13.9724 106.699 11.331 108.64 9.23207C110.579 7.13139 113.032 6.08105 116.002 6.08105C119.212 6.08105 121.712 7.07801 123.505 9.07021C125.297 11.0641 126.194 13.7985 126.194 17.2766C126.194 17.5108 126.191 17.7209 126.185 17.9034C126.177 18.2237 125.913 18.4802 125.593 18.4802H111.388C111.441 19.8973 111.977 21.0544 112.993 21.9498C114.008 22.8469 115.293 23.2946 116.844 23.2946C118.857 23.2946 120.443 22.5903 121.598 21.1835C121.8 20.9373 122.162 20.8943 122.415 21.0871L125.163 23.1706C125.414 23.3617 125.473 23.7164 125.294 23.9781C124.677 24.8769 123.734 25.7534 122.461 26.6057C120.963 27.6078 119.066 28.1089 116.763 28.1089C113.447 28.1089 110.78 27.0861 108.76 25.0405C106.74 22.9932 105.73 20.3657 105.73 17.1561ZM111.548 14.8677H120.576C120.522 13.585 120.081 12.5553 119.252 11.7787C118.423 11.0039 117.366 10.6165 116.082 10.6165C114.799 10.6165 113.755 11.0176 112.953 11.82C112.151 12.6224 111.682 13.6383 111.548 14.8677Z" fill="#FEFEFE"/>
<path d="M45.3645 26.9955V15.3041C45.3645 13.5616 43.9439 12.141 42.2014 12.141H38.143V26.9955C38.143 27.3227 37.8761 27.5879 37.5489 27.5879H33.1978C32.8724 27.5879 32.6055 27.3227 32.6055 26.9955V12.141V7.19756C32.6055 6.8704 32.8724 6.60352 33.1978 6.60352H38.143H42.7972C47.262 6.60352 50.902 10.2453 50.902 14.7083V26.9955C50.902 27.3227 50.6351 27.5879 50.308 27.5879H45.9568C45.6314 27.5879 45.3645 27.3227 45.3645 26.9955Z" fill="#FEFEFE"/>
</svg>
