<svg width="49" height="48" viewBox="0 0 49 48" fill="none" xmlns="http://www.w3.org/2000/svg">
<circle cx="24.5" cy="24" r="24" fill="white"/>
<path d="M31.5253 23.9992L18.7002 16.3153V31.6831L31.5253 23.9992ZM25.9429 18.7054L33.5851 23.2841C33.7007 23.3517 33.801 23.4458 33.8758 23.5658C34.1198 23.9575 33.9931 24.4701 33.5936 24.7084L18.344 33.845C18.2046 33.9425 18.0345 34 17.8501 34C17.3808 34 17 33.6266 17 33.1666V14.8318H17.0026C17.0017 14.6835 17.0425 14.5343 17.1267 14.3984C17.3706 14.0067 17.8926 13.8826 18.2921 14.1217L25.9429 18.7054Z" fill="black"/>
<path d="M31.5253 23.9992L18.7002 16.3153V31.6831L31.5253 23.9992Z" fill="black"/>
</svg>